# xmcd CD database file
#
# Track frame offsets:
#	150
#	22138
#	46977
#	68194
#	85661
#	114240
#	141673
#	162744
#	181522
#	208529
#	231857
#
# Disc length: 3376 seconds
#
# Revision: 0
# Processed by: cddbd v1.5.2PL0 Copyright (c) Steve Scherf et al.
# Submitted via: CDex 1.79
#
DISCID=960d2e0b
DTITLE=Kosho - All Sides Love
DYEAR=2011
DGENRE=Jazz
TTITLE0=Play Bach
TTITLE1=On Green Dolphin Street
TTITLE2=Liar
TTITLE3=Loveboat
TTITLE4=Here Comes The Blues
TTITLE5=Poetry
TTITLE6=When We Kiss
TTITLE7=Better Than Moon
TTITLE8=Good To Be Alive
TTITLE9=All The Time
TTITLE10=Sleep
EXTD=YEAR: 2011
EXTT0=
EXTT1=
EXTT2=
EXTT3=
EXTT4=
EXTT5=
EXTT6=
EXTT7=
EXTT8=
EXTT9=
EXTT10=
PLAYORDER=
